<svg width="20" height="20" viewBox="0 0 20 20" fill="none" xmlns="http://www.w3.org/2000/svg">
<path fill-rule="evenodd" clip-rule="evenodd" d="M13.8481 15.0266C12.565 16.053 10.9375 16.6667 9.16667 16.6667C5.02454 16.6667 1.66667 13.3088 1.66667 9.16669C1.66667 5.02455 5.02454 1.66669 9.16667 1.66669C13.3088 1.66669 16.6667 5.02455 16.6667 9.16669C16.6667 10.9375 16.0529 12.565 15.0266 13.8481L18.0893 16.9108C18.4147 17.2362 18.4147 17.7638 18.0893 18.0893C17.7638 18.4147 17.2362 18.4147 16.9107 18.0893L13.8481 15.0266ZM9.16667 15C12.3883 15 15 12.3883 15 9.16669C15 5.94503 12.3883 3.33335 9.16667 3.33335C5.94501 3.33335 3.33334 5.94503 3.33334 9.16669C3.33334 12.3883 5.94501 15 9.16667 15Z" fill="#2B2D33"/>
</svg>
